<?xml version="1.0" encoding="UTF-8" standalone="no"?>
<!-- Created with Inkscape (http://www.inkscape.org/) -->
<svg xmlns:dc="http://purl.org/dc/elements/1.1/" xmlns:cc="http://creativecommons.org/ns#" xmlns:rdf="http://www.w3.org/1999/02/22-rdf-syntax-ns#" xmlns:svg="http://www.w3.org/2000/svg" xmlns="http://www.w3.org/2000/svg" xmlns:sodipodi="http://sodipodi.sourceforge.net/DTD/sodipodi-0.dtd" xmlns:inkscape="http://www.inkscape.org/namespaces/inkscape" width="800" height="803.08228" id="svg2" version="1.1" inkscape:version="0.48.4 r9939" sodipodi:docname="New document 1">
  <defs id="defs4"/>
  <sodipodi:namedview id="base" pagecolor="#ffffff" bordercolor="#666666" borderopacity="1.0" inkscape:pageopacity="0.0" inkscape:pageshadow="2" inkscape:zoom="0.35" inkscape:cx="487.8572" inkscape:cy="415.98407" inkscape:document-units="px" inkscape:current-layer="layer1" showgrid="false" fit-margin-top="0" fit-margin-left="0" fit-margin-right="0" fit-margin-bottom="0" inkscape:window-width="1366" inkscape:window-height="705" inkscape:window-x="-8" inkscape:window-y="-8" inkscape:window-maximized="1"/>
  <metadata id="metadata7">
    <rdf:RDF>
      <cc:Work rdf:about="">
        <dc:format>image/svg+xml</dc:format>
        <dc:type rdf:resource="http://purl.org/dc/dcmitype/StillImage"/>
        <dc:title/>
      </cc:Work>
    </rdf:RDF>
  </metadata>
  <g inkscape:label="Layer 1" inkscape:groupmode="layer" id="layer1" transform="translate(112.8572,-145.26398)">
    <g id="g4593" transform="matrix(1.5839887,0,0,1.5839887,-2771.775,3070.6486)" style="fill:#ff0000;stroke:none" inkscape:export-xdpi="810" inkscape:export-ydpi="810" inkscape:export-filename="D:\Pictures\HCI Logo.png">
      <path style="fill:#ff0000;stroke:none" d="m 1898.6879,-1371.8469 -31.9883,-32 63.2442,0 c 34.7842,0 63.2441,0.3402 63.2441,0.7559 0,0.4158 -14.0651,14.8158 -31.2559,32 l -31.2558,31.2441 -31.9883,-32 z m -126.5,-95 0,-32 158,0 158,0 0,32 0,32 -158,0 -158,0 0,-32 z m -62.5331,-95.0045 -31.0331,-30.9955 31.5391,0 31.539,0 31.244,-31.2559 c 17.1843,-17.1907 31.2441,-31.7006 31.2441,-32.2442 0,-0.5436 -14.175,-15.1686 -31.5001,-32.5 l -31.5001,-31.5116 31.5002,-31.4883 31.5002,-31.4883 -31.7443,-31.7558 -31.7442,-31.7559 39.4884,0 39.4884,0 31.7558,31.7442 31.7558,31.7442 -31.5002,31.5116 -31.5001,31.5117 31.5001,31.4882 c 17.3251,17.3185 31.5001,31.9382 31.5001,32.4883 0,0.55 -14.0598,15.0652 -31.2441,32.2559 l -31.244,31.2559 19.5,0 19.5,0 31.244,-31.2559 c 17.1843,-17.1907 31.2441,-31.7006 31.2441,-32.2442 0,-0.5436 -14.175,-15.1686 -31.5001,-32.5 l -31.5001,-31.5116 31.5002,-31.4883 31.5002,-31.4883 -31.7443,-31.7558 -31.7442,-31.7559 39.4884,0 39.4884,0 31.7558,31.7442 31.7558,31.7442 -31.5002,31.5116 -31.5001,31.5117 31.5001,31.4882 c 17.3251,17.3185 31.5001,31.9382 31.5001,32.4883 0,0.55 -14.0598,15.0652 -31.2441,32.2559 l -31.244,31.2559 20,0 20,0 31.244,-31.2559 c 17.1843,-17.1907 31.2441,-31.7006 31.2441,-32.2442 0,-0.5436 -14.175,-15.1686 -31.5001,-32.5 l -31.5001,-31.5116 31.5002,-31.4883 31.5002,-31.4883 -31.7443,-31.7558 -31.7442,-31.7559 39.4884,0 39.4884,0 31.7558,31.7442 31.7558,31.7442 -31.5002,31.5116 -31.5001,31.5117 31.5001,31.4882 c 17.3251,17.3185 31.5001,31.9382 31.5001,32.4883 0,0.55 -14.0598,15.0652 -31.2441,32.2559 l -31.244,31.2559 62.988,0 62.988,0 -30.9879,31 -30.9879,31 -190.5061,0 -190.506,-0.01 -31.0331,-30.9955 z" id="path4597" inkscape:connector-curvature="0"/>
      <path style="fill:#ff0000;stroke:none" d="m 1900.188,-1372.3469 -30.4878,-30.5 60.7438,0 c 33.4092,0 60.7439,0.1153 60.7439,0.2561 0,0.1409 -13.6152,13.8659 -30.2561,30.5001 l -30.2561,30.2439 -30.4877,-30.5001 z m -127.0001,-94.5 0,-31 157,0 157,0 0,31 0,31 -157,0 -157,0 0,-31 z m -61.5,-95 -29.9875,-30 30.4997,0 30.4997,0 31.244,-31.2559 c 20.036,-20.0435 31.2441,-31.9691 31.2441,-33.2441 0,-1.2747 -11.1258,-13.1183 -31.0001,-33.0001 l -31.0001,-31.0118 31.0001,-30.988 c 17.0501,-17.0434 31.0001,-31.438 31.0001,-31.9881 0,-0.5501 -13.8348,-14.8403 -30.744,-31.756 l -30.7439,-30.756 37.4999,0 37.4999,0 31.2441,31.256 31.2442,31.2559 -31.0001,30.988 c -17.0501,17.0434 -31.0001,31.4381 -31.0001,31.9883 0,0.5501 14.1751,15.1805 31.5001,32.5119 l 31.5002,31.5117 -31.0002,30.9881 c -17.05,17.0434 -31.0001,31.5532 -31.0001,32.244 0,0.9668 4.6658,1.2561 20.2559,1.2561 l 20.256,0 31.244,-31.2559 c 20.1608,-20.1683 31.2441,-31.9654 31.2441,-33.256 0,-1.2908 -10.9941,-12.99 -31.0001,-32.9882 l -31.0001,-30.988 31.0001,-31.0118 c 17.0501,-17.0565 31.0001,-31.4565 31.0001,-32 0,-0.5435 -13.8348,-14.8284 -30.744,-31.7441 l -30.7439,-30.756 37.4999,0 37.4999,0 31.2441,31.256 31.2442,31.2559 -31.0001,30.988 c -17.0501,17.0434 -31.0001,31.4381 -31.0001,31.9883 0,0.5501 14.1751,15.1805 31.5001,32.5119 l 31.5002,31.5117 -31.0002,30.9881 c -17.05,17.0434 -31.0001,31.5532 -31.0001,32.244 0,0.9678 4.7645,1.2561 20.7559,1.2561 l 20.756,0 31.244,-31.2559 c 20.036,-20.0435 31.2441,-31.9691 31.2441,-33.2441 0,-1.2747 -11.1258,-13.1183 -31.0001,-33.0001 l -31.0001,-31.0118 31.0001,-30.988 c 17.0501,-17.0434 31.0001,-31.438 31.0001,-31.9881 0,-0.5501 -13.8348,-14.8403 -30.744,-31.756 l -30.7439,-30.756 37.4999,0 37.4999,0 31.2441,31.256 31.2442,31.2559 -31.0001,30.988 c -17.0501,17.0434 -31.0001,31.4381 -31.0001,31.9883 0,0.5501 14.1751,15.1805 31.5001,32.5119 l 31.5002,31.5117 -31.0002,30.9881 c -17.05,17.0434 -31.0001,31.5532 -31.0001,32.244 0,0.9945 12.8568,1.2561 61.7438,1.2561 l 61.7437,0 -29.9875,30 -29.9875,30 -189.5125,0 -189.5125,0 -29.9875,-30 z" id="path4595" inkscape:connector-curvature="0"/>
    </g>
  </g>
</svg>